<svg width="1299" height="1299" xmlns="http://www.w3.org/2000/svg" xmlns:xlink="http://www.w3.org/1999/xlink" xml:space="preserve" overflow="hidden"><defs><clipPath id="clip0"><rect x="433" y="588" width="1299" height="1299"/></clipPath></defs><g clip-path="url(#clip0)" transform="translate(-433 -588)"><path d="M1005.25 588 1157.85 588 1222.7 721.721C1264.67 733.183 1304.72 750.375 1342.87 771.388L1485.93 723.631 1594.66 832.518 1546.97 975.79C1567.96 1012.09 1585.12 1052.2 1596.57 1094.23L1732 1159.18 1732 1312 1598.48 1378.86C1587.03 1420.89 1569.86 1461 1548.88 1499.21L1596.57 1642.48 1487.84 1751.37 1344.78 1703.61C1308.54 1724.62 1268.48 1741.82 1226.52 1753.28L1159.75 1887 1007.15 1887 940.392 1753.28C898.428 1741.82 858.37 1724.62 820.22 1703.61L677.159 1751.37 568.432 1642.48 616.119 1499.21C595.137 1462.91 577.969 1422.8 566.524 1380.77L433 1313.91 433 1161.09 566.524 1096.14C577.969 1054.11 595.137 1014 616.119 975.79L568.432 832.518 677.159 723.631 820.22 771.388C856.463 750.375 896.52 733.183 938.484 721.721Z" fill="#385723" fill-rule="evenodd"/><path d="M1407 1526.73 1218.58 1237.5 1333.73 1268.49 1197.65 1061.9 1281.39 1072.23 1082.5 783 883.613 1072.23 967.355 1061.9 831.274 1268.49 946.42 1237.5 758 1526.73 1040.63 1475.08 1040.63 1692 1124.37 1692 1124.37 1475.08Z" fill="#92D050" fill-rule="evenodd"/></g></svg>